<?xml version="1.0" encoding="UTF-8" standalone="no"?>
<!-- Created with Inkscape (http://www.inkscape.org/) -->

<svg
   version="1.1"
   id="svg15579"
   width="5943.4917"
   height="2011.3594"
   viewBox="0 0 5943.4917 2011.3594"
   sodipodi:docname="vecteezy_black-white-network-graph-data-or-molecule-silhouette_6472460.eps.2023_07_08_23_15_15.1.svg"
   inkscape:version="1.2.2 (1:1.2.2+202305151915+b0a8486541)"
   xmlns:inkscape="http://www.inkscape.org/namespaces/inkscape"
   xmlns:sodipodi="http://sodipodi.sourceforge.net/DTD/sodipodi-0.dtd"
   xmlns="http://www.w3.org/2000/svg"
   xmlns:svg="http://www.w3.org/2000/svg">
  <defs
     id="defs15583">
    <filter
       inkscape:collect="always"
       style="color-interpolation-filters:sRGB"
       id="filter18412"
       x="-0.26149141"
       y="-0.3807145"
       width="1.5229828"
       height="1.761429">
      <feGaussianBlur
         inkscape:collect="always"
         stdDeviation="8.4886473"
         id="feGaussianBlur18410" />
    </filter>
  </defs>
  <sodipodi:namedview
     id="namedview15581"
     pagecolor="#ffffff"
     bordercolor="#666666"
     borderopacity="1.0"
     inkscape:showpageshadow="2"
     inkscape:pageopacity="0.0"
     inkscape:pagecheckerboard="0"
     inkscape:deskcolor="#d1d1d1"
     showgrid="false"
     inkscape:zoom="0.050586474"
     inkscape:cx="7333.9762"
     inkscape:cy="1591.3345"
     inkscape:window-width="1848"
     inkscape:window-height="1016"
     inkscape:window-x="0"
     inkscape:window-y="27"
     inkscape:window-maximized="1"
     inkscape:current-layer="g15587">
    <inkscape:page
       x="0"
       y="0"
       id="page15585"
       width="5943.4917"
       height="2011.3594" />
  </sodipodi:namedview>
  <g
     id="g15587"
     inkscape:groupmode="layer"
     inkscape:label="Page 1"
     transform="matrix(1.3333333,0,0,-1.3333333,379.59471,5266.7793)">
    <g
       id="g15595"
       transform="matrix(0.203801,0,0,0.203801,-732.51334,2080.5266)">
      <path
         d="m 14495.1,8705.29 c -135.6,0 -265.7,-53.88 -361.6,-149.78 -95.9,-95.9 -149.8,-225.98 -149.8,-361.6 0.1,-160.25 75.4,-311.17 203.3,-407.72 -105.7,-203.22 -236.8,-450.04 -371,-700.27 -72.7,-135.54 -145.2,-269.98 -214.6,-398.51 -143.9,88.33 -309.4,135.1 -478.3,135.13 -210,-0.11 -413.5,-72.5 -576.5,-205.02 l -1462.8,1430.33 c 29.1,50.7 44.4,108.14 44.4,166.61 0,88.77 -35.2,173.91 -98,236.69 -62.8,62.77 -147.9,98.04 -236.7,98.04 -88.8,0 -173.9,-35.27 -236.7,-98.04 -62.8,-62.78 -98,-147.92 -98,-236.69 0,-88.78 35.2,-173.92 98,-236.69 62.8,-62.78 147.9,-98.04 236.7,-98.04 83.5,0.03 164,31.27 225.6,87.59 l 1451.7,-1419.34 c -167.7,-170.74 -261.7,-400.42 -261.9,-639.72 0,-114.87 21.6,-228.7 63.8,-335.55 -111.4,-42.79 -199.5,-76.88 -320.3,-123.09 -315.1,-120.55 -632,-241.12 -873.9,-331.46 -44.8,-16.72 -83.8,-31.15 -123,-45.59 -55.1,101.43 -161.3,164.58 -276.7,164.6 -83.6,0 -163.7,-33.19 -222.8,-92.28 -59.1,-59.08 -92.3,-139.21 -92.3,-222.76 0,-173.99 141.1,-315.02 315.1,-315.02 104.1,0 201.5,51.47 260.2,137.5 115.5,-48.99 252.5,-106.66 421.8,-177.3 438.3,-182.84 1028.4,-426.55 1620.4,-670.28 579,-238.38 1153.7,-474.17 1596.1,-655.54 -37.2,-95.76 -56.4,-197.6 -56.4,-300.35 0,-458.16 371.4,-829.57 829.6,-829.56 458.2,0.01 829.6,371.41 829.6,829.56 0,458.17 -371.4,829.58 -829.6,829.59 -23.6,-0.09 -47.1,-1.19 -70.6,-3.3 -83.5,449.3 -192,1035.28 -299.3,1621.66 L 15295,5310 c -7.7,-35.23 -11.6,-71.17 -11.7,-107.21 0,-134.82 53.6,-264.12 148.9,-359.45 95.4,-95.33 224.7,-148.89 359.5,-148.89 134.8,0 264.1,53.56 359.4,148.89 95.3,95.33 148.9,224.63 148.9,359.45 0,280.73 -227.6,508.31 -508.3,508.3 -201.3,-0.15 -383.6,-119.06 -464.8,-303.24 l -366.8,92.28 c -9,49.09 -9.3,49.07 -18.3,98.25 -119.3,655.4 -236.6,1311.39 -320.2,1804.52 -17.8,104.66 -33.1,197.47 -47.5,285.88 248.9,38.93 432.3,253.26 432.4,505.13 0,135.62 -53.9,265.7 -149.8,361.6 -95.9,95.9 -226,149.78 -361.6,149.78 z m -220.2,-972.84 c 61.4,-29.19 128,-45.85 195.9,-49 14.9,-91.41 31,-188.78 49.4,-297.69 83.8,-493.96 201.2,-1150.25 320.5,-1805.86 4.8,-26.12 5,-26.08 9.7,-52.19 l -829.9,208.72 c 11,56.61 16.7,114.14 16.9,171.83 0,281.27 -129.5,546.88 -351,720.14 69.5,128.76 144,266.88 220.2,408.93 132.9,247.85 262.8,492.38 368.3,695.12 z m -278.8,-2095.8 874.9,-220.06 c 110.3,-603.26 221.8,-1205.67 307.1,-1664.35 -238,-50.72 -441.8,-203.4 -557.3,-417.61 -442.9,181.55 -1019.9,418.34 -1600.6,657.38 -591.9,243.69 -1181.9,487.4 -1619.9,670.12 -167.8,70 -303.5,127.13 -418.2,175.77 7.7,27.42 11.6,55.75 11.7,84.23 0,17.88 -1.5,35.73 -4.6,53.36 39.8,14.69 79.7,29.43 125.2,46.44 242.4,90.52 559.5,211.09 874.7,331.69 119.5,45.75 212.5,81.72 327.3,125.82 158.5,-298.51 468.7,-485.21 806.7,-485.48 400.3,0.03 754.1,260.46 873,642.69"
         style="fill:#000000;fill-opacity:1;fill-rule:evenodd;stroke:none"
         id="path15597" />
    </g>
    <g
       id="g15599"
       transform="matrix(0.112422,0,0,0.112422,-732.51334,2080.5266)">
      <path
         d="m 7665.01,16300 c -171.58,0 -336.13,-68.2 -457.46,-189.5 -121.32,-121.3 -189.48,-285.9 -189.48,-457.4 0,-171.6 68.16,-336.2 189.48,-457.5 121.33,-121.3 285.88,-189.5 457.46,-189.5 52.13,0.1 104.07,6.5 154.66,19.1 L 9516,11306.2 c -398.33,-162.9 -719.86,-471.1 -899.47,-862.2 -363.46,113.6 -485.95,153.5 -924.19,288.9 -536.69,165.8 -1027.95,314.1 -1476.13,448 13.59,69.6 20.56,140.4 20.83,211.4 0.01,298.9 -118.71,585.5 -330.04,796.8 -211.32,211.4 -497.94,330.1 -796.8,330.1 -298.86,0 -585.49,-118.7 -796.81,-330.1 -211.32,-211.3 -330.04,-497.9 -330.03,-796.8 0.01,-622.3 504.5,-1126.8 1126.84,-1126.8 85.35,0 170.42,9.7 253.57,29 7.8,-19.2 11.31,-28.1 19.27,-47.6 267.5,-656.08 623.73,-1522.88 979.82,-2387.25 452.65,-1098.79 635.34,-1539.23 904.96,-2191.12 -360.89,-234.3 -578.79,-635.23 -579.1,-1065.51 0.01,-702.19 569.27,-1271.43 1271.46,-1271.42 702.19,0.02 1271.42,569.24 1271.43,1271.42 -0.03,103.96 -12.8,207.52 -38.04,308.36 l 4817.23,2077.57 c 159,-194.1 396.7,-306.69 647.6,-306.81 222.2,0 435.2,88.26 592.3,245.35 157.1,157.1 245.3,370.16 245.3,592.32 0,462.6 -375,837.61 -837.6,837.62 -35.6,-0.16 -71.1,-2.59 -106.4,-7.26 l -1450.5,4591.03 c 383.8,164.6 632.7,542 633,959.6 0,277.1 -110.1,542.9 -306,738.8 -196,196 -461.8,306.1 -738.9,306.1 -577.1,-0.1 -1044.9,-467.9 -1044.9,-1044.9 0,-577.1 467.8,-1044.9 1044.9,-1044.9 76.2,0.1 152.1,8.5 226.4,25 l 1446.4,-4577.84 c -325.8,-123.08 -541.5,-434.95 -541.7,-783.26 0.1,-126.26 28.6,-250.89 83.6,-364.57 L 9131.69,5096.9 c -113.06,268.25 -314.75,489.57 -571.37,627 l 1084.06,2396 c 165.89,-52.8 338.92,-79.75 513.02,-79.9 449.9,0 881.4,178.73 1199.6,496.88 318.1,318.14 496.8,749.64 496.8,1199.57 0,449.95 -178.7,881.45 -496.8,1199.55 -318.2,318.2 -749.7,496.9 -1199.6,496.9 -154.1,-0.4 -307.52,-21.8 -455.89,-63.6 l -1701.65,3730.6 c 193.59,117.2 311.94,326.9 312.09,553.2 0,171.5 -68.16,336.1 -189.48,457.4 -121.33,121.3 -285.88,189.5 -457.46,189.5 z M 6163.53,10993.1 c 446.59,-133.4 935.85,-281.1 1471.21,-446.5 443.85,-137.2 531.47,-166.2 910.46,-284.7 -55.55,-169.6 -83.98,-346.95 -84.25,-525.45 0.46,-667.49 392.32,-1272.67 1001.18,-1546.23 L 8381.81,5802.49 c -135.47,47.64 -278.03,71.98 -421.63,72 -179.38,-0.27 -356.68,-38.5 -520.23,-112.18 -253.2,612.17 -465.64,1124.83 -896.87,2171.61 -356.03,864.25 -712.15,1730.92 -979.48,2386.58 -5.85,14.3 -8.38,20.8 -14.15,34.9 283.13,119.9 504.97,350.3 614.08,637.7"
         style="fill:#000000;fill-opacity:1;fill-rule:evenodd;stroke:none"
         id="path15601" />
    </g>
    <g
       id="g17625">
      <g
         id="g17615"
         transform="matrix(0.112422,0,0,0.112422,-732.51334,2080.5266)">
        <circle
           style="fill:#000000;fill-opacity:1;stroke:#000000;stroke-width:12.6071;stop-color:#000000"
           id="path16985"
           cx="37393.867"
           cy="-15269.973"
           r="719.75903"
           transform="scale(1,-1)" />
        <path
           style="fill:none;stroke:#000000;stroke-width:166.782;stroke-linecap:butt;stroke-linejoin:miter;stroke-dasharray:none;stroke-opacity:1"
           d="m 37418.483,15027.749 440.183,-2872.844"
           id="path17611" />
      </g>
      <g
         id="g15603"
         transform="matrix(0.300947,0,0,0.300947,-732.51334,2080.5266)">
        <path
           d="m 12870.2,6094.77 c -147.2,0 -288.5,-58.49 -392.6,-162.61 -104.1,-104.12 -162.6,-245.34 -162.6,-392.59 0,-147.25 58.5,-288.47 162.6,-392.59 104.1,-104.12 245.4,-162.62 392.6,-162.61 110.6,0.03 218.6,33.08 310.3,94.91 l 510.4,-564.95 c -103,-107.25 -160.6,-250.15 -160.7,-398.83 0.2,-260.84 175.5,-489.05 427.5,-556.44 l -225.1,-988.22 c -29.4,4.43 -59.1,6.66 -88.8,6.67 -330.1,0 -597.7,-267.56 -597.7,-597.62 0,-158.5 63,-310.51 175.1,-422.58 112,-112.08 264.1,-175.05 422.6,-175.04 330,0 597.6,267.57 597.6,597.62 0,79.49 -15.9,158.16 -46.7,231.44 l 1439.1,823.5 c 71.7,-84.74 177.1,-133.65 288.1,-133.75 100.3,0 196.5,39.82 267.4,110.72 70.9,70.89 110.7,167.05 110.7,267.31 0,100.27 -39.8,196.43 -110.7,267.33 -70.9,70.89 -167.1,110.72 -267.4,110.72 -145.9,-0.03 -278.8,-84.06 -341.4,-215.89 l -946.3,443.1 c 32.1,72.85 48.7,151.54 48.8,231.13 0,55.12 -7.9,109.96 -23.5,162.84 l 435,1016.86 c 30.4,-11.19 62.6,-16.95 95.1,-17 73.4,0 143.9,29.18 195.8,81.12 52,51.95 81.2,122.4 81.2,195.86 0,73.46 -29.2,143.91 -81.2,195.86 -51.9,51.94 -122.4,81.12 -195.8,81.12 -153,-0.01 -277,-124.01 -277,-276.98 0.1,-73.99 29.8,-144.89 82.4,-196.87 l -560.7,-768.62 c -96.3,66.55 -210.6,102.2 -327.7,102.22 -135.5,-0.13 -266.6,-48.01 -370.4,-135.23 l -506.3,560.46 c 123.9,105.38 195.4,259.78 195.5,422.43 0,306.63 -248.6,555.2 -555.2,555.2 z m 2158.5,-795.54 -400.9,-937.45 c -34.4,72.69 -83.6,137.38 -144.4,189.93 z m -422.1,-1470.39 952.1,-445.79 c -9.7,-33.79 -14.7,-68.77 -14.8,-103.94 0.1,-68.17 18.6,-135.07 53.5,-193.6 l -1429.7,-818.18 c -59.4,108.17 -150.8,195.33 -261.7,249.49 l 465,1086.86 c 98.5,50.82 180.4,128.99 235.6,225.16 z m -318,-259.92 -439.6,-1027.81 c -18.2,6.67 -36.8,12.46 -55.6,17.32 l 225,987.53 c 29.2,-4.55 58.7,-6.85 88.2,-6.88 61.9,0.12 123.4,10.19 182,29.84"
           style="fill:#000000;fill-opacity:1;fill-rule:evenodd;stroke:none"
           id="path15605" />
      </g>
    </g>
    <path
       style="font-variation-settings:normal;opacity:1;mix-blend-mode:normal;fill:none;fill-opacity:1;stroke:#00f800;stroke-width:22.5;stroke-linecap:butt;stroke-linejoin:miter;stroke-miterlimit:4;stroke-dasharray:none;stroke-dashoffset:0;stroke-opacity:1;filter:url(#filter18412);stop-color:#000000;stop-opacity:1"
       d="m -130.4099,3273.8984 246.03673,-602.828"
       id="path18353" />
    <path
       style="font-variation-settings:normal;opacity:1;vector-effect:none;fill:none;fill-opacity:1;stroke:#00f800;stroke-width:22.5;stroke-linecap:butt;stroke-linejoin:miter;stroke-miterlimit:4;stroke-dasharray:none;stroke-dashoffset:0;stroke-opacity:1;-inkscape-stroke:none;filter:url(#filter18412);stop-color:#000000;stop-opacity:1"
       d="M 151.12917,3783.7311 350.55555,3346.7803"
       id="path19866" />
    <path
       style="font-variation-settings:normal;opacity:1;vector-effect:none;fill:none;fill-opacity:1;stroke:#00f800;stroke-width:22.5;stroke-linecap:butt;stroke-linejoin:miter;stroke-miterlimit:4;stroke-dasharray:none;stroke-dashoffset:0;stroke-opacity:1;-inkscape-stroke:none;filter:url(#filter18412);stop-color:#000000;stop-opacity:1"
       d="m 1495.9291,3100.7447 275.9027,105.9281"
       id="path19923" />
    <path
       style="font-variation-settings:normal;opacity:1;vector-effect:none;fill:none;fill-opacity:1;stroke:#00f800;stroke-width:22.5;stroke-linecap:butt;stroke-linejoin:miter;stroke-miterlimit:4;stroke-dasharray:none;stroke-dashoffset:0;stroke-opacity:1;-inkscape-stroke:none;filter:url(#filter18412);stop-color:#000000;stop-opacity:1"
       d="m 2050.5102,3440.1902 116.0163,221.3729"
       id="path19941" />
    <path
       style="font-variation-settings:normal;opacity:1;vector-effect:none;fill:none;fill-opacity:1;stroke:#00f800;stroke-width:22.5;stroke-linecap:butt;stroke-linejoin:miter;stroke-miterlimit:4;stroke-dasharray:none;stroke-dashoffset:0;stroke-opacity:1;-inkscape-stroke:none;filter:url(#filter18412);stop-color:#000000;stop-opacity:1"
       d="m 1505.1054,3054.97 737.857,-304.2603"
       id="path19959" />
    <path
       style="font-variation-settings:normal;opacity:1;vector-effect:none;fill:none;fill-opacity:1;stroke:#00f800;stroke-width:22.5;stroke-linecap:butt;stroke-linejoin:miter;stroke-miterlimit:4;stroke-dasharray:none;stroke-dashoffset:0;stroke-opacity:1;-inkscape-stroke:none;filter:url(#filter18412);stop-color:#000000;stop-opacity:1"
       d="m 2369.2234,2851.6339 -142.2487,794.1318"
       id="path19977" />
    <path
       style="font-variation-settings:normal;opacity:1;vector-effect:none;fill:none;fill-opacity:1;stroke:#00f800;stroke-width:22.5;stroke-linecap:butt;stroke-linejoin:miter;stroke-miterlimit:4;stroke-dasharray:none;stroke-dashoffset:0;stroke-opacity:1;-inkscape-stroke:none;filter:url(#filter18412);stop-color:#000000;stop-opacity:1"
       d="m -34.984553,3327.1094 265.269883,-81.751"
       id="path19995" />
    <path
       style="font-variation-settings:normal;opacity:1;vector-effect:none;fill:none;fill-opacity:1;stroke:#00f800;stroke-width:22.5;stroke-linecap:butt;stroke-linejoin:miter;stroke-miterlimit:4;stroke-dasharray:none;stroke-dashoffset:0;stroke-opacity:1;-inkscape-stroke:none;filter:url(#filter18412);stop-color:#000000;stop-opacity:1"
       d="m 3620.7388,3458.8675 c 166.1783,229.0192 166.1783,229.0192 166.1783,229.0192"
       id="path20076" />
    <path
       style="font-variation-settings:normal;opacity:1;vector-effect:none;fill:none;fill-opacity:1;stroke:#00f800;stroke-width:22.5;stroke-linecap:butt;stroke-linejoin:miter;stroke-miterlimit:4;stroke-dasharray:none;stroke-dashoffset:0;stroke-opacity:1;-inkscape-stroke:none;filter:url(#filter18412);stop-color:#000000;stop-opacity:1"
       d="m 3675.8546,3385.2892 123.9748,287.414"
       id="path20094" />
    <path
       style="font-variation-settings:normal;opacity:1;vector-effect:none;fill:none;fill-opacity:1;stroke:#00f800;stroke-width:22.5;stroke-linecap:butt;stroke-linejoin:miter;stroke-miterlimit:4;stroke-dasharray:none;stroke-dashoffset:0;stroke-opacity:1;-inkscape-stroke:none;filter:url(#filter18412);stop-color:#000000;stop-opacity:1"
       d="m 3443.9069,2843.1839 c 134.4075,315.3909 134.4075,315.3909 134.4075,315.3909"
       id="path20112" />
    <path
       style="font-variation-settings:normal;opacity:1;vector-effect:none;fill:none;fill-opacity:1;stroke:#00f800;stroke-width:22.5;stroke-linecap:butt;stroke-linejoin:miter;stroke-miterlimit:4;stroke-dasharray:none;stroke-dashoffset:0;stroke-opacity:1;-inkscape-stroke:none;filter:url(#filter18412);stop-color:#000000;stop-opacity:1"
       d="M 3669.6638,3240.3856 3949.88,3109.617"
       id="path20130" />
    <path
       style="font-variation-settings:normal;opacity:1;vector-effect:none;fill:none;fill-opacity:1;stroke:#00f800;stroke-width:22.5;stroke-linecap:butt;stroke-linejoin:miter;stroke-miterlimit:4;stroke-dasharray:none;stroke-dashoffset:0;stroke-opacity:1;-inkscape-stroke:none;filter:url(#filter18412);stop-color:#000000;stop-opacity:1"
       d="m 3535.6157,2753.7303 428.4198,244.5796"
       id="path20148" />
  </g>
</svg>
