<?xml version="1.0" encoding="UTF-8" standalone="no"?>
<!-- Created with Inkscape (http://www.inkscape.org/) -->

<svg
   width="73.840263mm"
   height="45.850288mm"
   viewBox="0 0 73.840263 45.850288"
   version="1.1"
   id="svg520"
   inkscape:version="1.2.2 (1:1.2.2+202305151915+b0a8486541)"
   sodipodi:docname="pop_coding_sketch.svg"
   xmlns:inkscape="http://www.inkscape.org/namespaces/inkscape"
   xmlns:sodipodi="http://sodipodi.sourceforge.net/DTD/sodipodi-0.dtd"
   xmlns:xlink="http://www.w3.org/1999/xlink"
   xmlns="http://www.w3.org/2000/svg"
   xmlns:svg="http://www.w3.org/2000/svg">
  <sodipodi:namedview
     id="namedview522"
     pagecolor="#ffffff"
     bordercolor="#666666"
     borderopacity="1.0"
     inkscape:showpageshadow="2"
     inkscape:pageopacity="0.0"
     inkscape:pagecheckerboard="0"
     inkscape:deskcolor="#d1d1d1"
     inkscape:document-units="mm"
     showgrid="false"
     inkscape:zoom="2.1417558"
     inkscape:cx="91.513701"
     inkscape:cy="-115.79285"
     inkscape:window-width="1848"
     inkscape:window-height="1163"
     inkscape:window-x="1920"
     inkscape:window-y="0"
     inkscape:window-maximized="1"
     inkscape:current-layer="layer1" />
  <defs
     id="defs517">
    <inkscape:path-effect
       effect="bspline"
       id="path-effect816"
       is_visible="true"
       lpeversion="1"
       weight="33.333333"
       steps="2"
       helper_size="0"
       apply_no_weight="true"
       apply_with_weight="true"
       only_selected="false" />
    <linearGradient
       inkscape:collect="always"
       xlink:href="#linearGradient3670"
       id="linearGradient5660"
       gradientUnits="userSpaceOnUse"
       x1="260"
       y1="3250.5"
       x2="7575"
       y2="3250.5"
       gradientTransform="matrix(0.00580912,-3.0242893e-6,3.0242893e-6,0.00580912,62.928511,136.05272)" />
    <linearGradient
       inkscape:collect="always"
       id="linearGradient3670">
      <stop
         style="stop-color:#f10000;stop-opacity:1;"
         offset="0"
         id="stop3666" />
      <stop
         style="stop-color:#000000;stop-opacity:0;"
         offset="1"
         id="stop3668" />
    </linearGradient>
    <linearGradient
       inkscape:collect="always"
       xlink:href="#linearGradient3670"
       id="linearGradient1469"
       gradientUnits="userSpaceOnUse"
       gradientTransform="matrix(0.00580912,-3.0242893e-6,3.0242893e-6,0.00580912,56.25595,136.05272)"
       x1="260"
       y1="3250.5"
       x2="7575"
       y2="3250.5" />
    <linearGradient
       inkscape:collect="always"
       xlink:href="#linearGradient3670"
       id="linearGradient1492"
       gradientUnits="userSpaceOnUse"
       gradientTransform="matrix(0.00580912,-3.0242893e-6,3.0242893e-6,0.00580912,50.45395,135.81964)"
       x1="260"
       y1="3250.5"
       x2="7575"
       y2="3250.5" />
    <linearGradient
       inkscape:collect="always"
       xlink:href="#linearGradient3670"
       id="linearGradient1515"
       gradientUnits="userSpaceOnUse"
       gradientTransform="matrix(0.00580912,-3.0242893e-6,3.0242893e-6,0.00580912,71.357164,136.05272)"
       x1="260"
       y1="3250.5"
       x2="7575"
       y2="3250.5" />
    <linearGradient
       inkscape:collect="always"
       xlink:href="#linearGradient3670"
       id="linearGradient1538"
       gradientUnits="userSpaceOnUse"
       gradientTransform="matrix(0.00580912,-3.0242893e-6,3.0242893e-6,0.00580912,75.500358,136.05272)"
       x1="260"
       y1="3250.5"
       x2="7575"
       y2="3250.5" />
    <inkscape:path-effect
       effect="bspline"
       id="path-effect10116"
       is_visible="true"
       lpeversion="1"
       weight="33.333333"
       steps="2"
       helper_size="0"
       apply_no_weight="true"
       apply_with_weight="true"
       only_selected="false" />
    <marker
       style="overflow:visible"
       id="TriangleStart-6-2"
       refX="0"
       refY="0"
       orient="auto-start-reverse"
       inkscape:stockid="TriangleStart"
       markerWidth="5.3244081"
       markerHeight="6.155385"
       viewBox="0 0 5.3244081 6.1553851"
       inkscape:isstock="true"
       inkscape:collect="always"
       preserveAspectRatio="xMidYMid">
      <path
         transform="scale(0.5)"
         style="fill:context-stroke;fill-rule:evenodd;stroke:context-stroke;stroke-width:1pt"
         d="M 5.77,0 -2.88,5 V -5 Z"
         id="path135-7-6" />
    </marker>
    <marker
       style="overflow:visible"
       id="TriangleStart-60"
       refX="0"
       refY="0"
       orient="auto-start-reverse"
       inkscape:stockid="TriangleStart"
       markerWidth="5.3244081"
       markerHeight="6.155385"
       viewBox="0 0 5.3244081 6.1553851"
       inkscape:isstock="true"
       inkscape:collect="always"
       preserveAspectRatio="xMidYMid">
      <path
         transform="scale(0.5)"
         style="fill:context-stroke;fill-rule:evenodd;stroke:context-stroke;stroke-width:1pt"
         d="M 5.77,0 -2.88,5 V -5 Z"
         id="path135-6" />
    </marker>
    <clipPath
       clipPathUnits="userSpaceOnUse"
       id="clipPath9846">
      <rect
         style="fill:#000000;fill-opacity:1;stroke:none;stroke-width:0.499999;stroke-dasharray:1.05833, 0.264583;stroke-dashoffset:0;stop-color:#000000"
         id="rect9848"
         width="65.174393"
         height="42.372898"
         x="155.07674"
         y="1.7217948" />
    </clipPath>
  </defs>
  <g
     inkscape:label="Layer 1"
     inkscape:groupmode="layer"
     id="layer1"
     transform="translate(-46.882237,-129.22229)">
    <path
       class="fil1 str1"
       d="m 64.45638,169.66349 v 0 l 0.139419,-7e-5 0.145228,-7e-5 0.139419,-8e-5 0.145228,-7e-5 0.139419,-7e-5 0.145228,-8e-5 0.139419,-7e-5 0.145228,-8e-5 0.139416,-0.006 0.139418,-7e-5 0.145228,-8e-5 0.139419,-7e-5 0.145228,-8e-5 0.139413,-0.0117 0.145228,-8e-5 0.139419,-7e-5 0.145225,-0.006 0.139419,-8e-5 0.145225,-0.006 0.139419,-7e-5 0.145225,-0.006 0.139418,-7e-5 0.145225,-0.006 0.139416,-0.006 0.145228,-8e-5 0.139413,-0.0117 0.145225,-0.006 0.139415,-0.006 0.145222,-0.0117 0.139416,-0.006 0.139413,-0.0117 0.145222,-0.0117 0.139416,-0.006 0.145222,-0.0117 0.13941,-0.0175 0.145222,-0.0117 0.139407,-0.0233 0.145222,-0.0117 0.139409,-0.0175 0.145216,-0.0233 0.13941,-0.0175 0.145216,-0.0233 0.139403,-0.0291 0.145216,-0.0233 0.139401,-0.0349 0.145213,-0.0291 0.1394,-0.0349 0.145207,-0.0407 0.139398,-0.0407 0.133592,-0.0349 0.145207,-0.0407 0.139388,-0.0582 0.145204,-0.0465 0.139389,-0.0582 0.145198,-0.0582 0.139384,-0.064 0.145192,-0.0698 0.139383,-0.0698 0.145185,-0.0814 0.139377,-0.0814 0.145183,-0.0872 0.139373,-0.0872 0.145174,-0.10464 0.139367,-0.0988 0.145171,-0.11045 0.139355,-0.12207 0.139356,-0.12206 0.145161,-0.12788 0.13935,-0.13368 0.145149,-0.15111 0.139343,-0.1453 0.145144,-0.16273 0.139333,-0.16273 0.145134,-0.18016 0.139322,-0.18596 0.145129,-0.19178 0.139313,-0.20339 0.145119,-0.20921 0.139304,-0.22082 0.145107,-0.23244 0.139292,-0.24405 0.145098,-0.24987 0.139286,-0.25567 0.145086,-0.27311 0.13927,-0.28472 0.145077,-0.29053 0.139259,-0.30795 0.139258,-0.30796 0.145058,-0.32539 0.139247,-0.33119 0.145046,-0.34862 0.139238,-0.34862 0.145037,-0.36605 0.13922,-0.38348 0.145028,-0.38347 0.139213,-0.3951 0.14502,-0.4009 0.139198,-0.42414 0.14501,-0.41833 0.139189,-0.44157 0.144998,-0.44157 0.139189,-0.44156 0.144987,-0.46481 0.139176,-0.4648 0.14498,-0.47642 0.139174,-0.47061 0.144974,-0.48804 0.139164,-0.48804 0.139162,-0.49385 0.144968,-0.49966 0.139156,-0.50547 0.144968,-0.49966 0.139156,-0.50546 0.144962,-0.51128 0.139156,-0.50547 0.144961,-0.51127 0.139159,-0.49966 0.144965,-0.50547 0.139162,-0.49385 0.144971,-0.49385 0.139158,-0.49966 0.14498,-0.47642 0.139168,-0.48223 0.144986,-0.4648 0.139174,-0.47061 0.144995,-0.44738 0.139189,-0.44157 0.145004,-0.42995 0.139205,-0.41252 0.139207,-0.40671 0.145022,-0.3951 0.139226,-0.37185 0.14504,-0.36024 0.139241,-0.34281 0.145058,-0.32539 0.139261,-0.30215 0.145074,-0.29634 0.139283,-0.26148 0.145098,-0.24987 0.139298,-0.23244 0.145122,-0.20339 0.139322,-0.18596 0.145143,-0.16273 0.139347,-0.1395 0.145164,-0.12206 0.139371,-0.093 0.145191,-0.0698 0.139395,-0.0465 0.145216,-0.0233 0.133609,-7e-5 0.139431,0.0232 0.145252,0.0464 0.139456,0.0696 0.145276,0.0929 0.139482,0.12192 0.145301,0.13935 0.139504,0.16258 0.145324,0.18582 0.139525,0.20324 0.145349,0.23229 0.139549,0.24972 0.139555,0.26134 0.145382,0.29619 0.139577,0.302 0.145397,0.32523 0.139596,0.34267 0.145416,0.36009 0.139613,0.37171 0.145433,0.39495 0.139631,0.40656 0.145443,0.41237 0.139642,0.42981 0.145458,0.44141 0.139652,0.44723 0.145473,0.47047 0.139661,0.46465 0.145479,0.48208 0.139667,0.47628 0.145488,0.49951 0.139673,0.4937 0.14549,0.4937 0.13968,0.50532 0.13968,0.49951 0.145487,0.51113 0.13968,0.50532 0.1455,0.51113 0.139677,0.50532 0.14549,0.49951 0.13968,0.50532 0.14549,0.49951 0.139667,0.4937 0.14549,0.48789 0.13967,0.48789 0.14547,0.47046 0.139667,0.47628 0.14547,0.46465 0.13966,0.46466 0.14546,0.44142 0.139647,0.44142 0.14545,0.44142 0.13964,0.41818 0.145447,0.42399 0.13963,0.40076 0.13962,0.39494 0.14543,0.38333 0.139617,0.38333 0.14542,0.3659 0.1396,0.34847 0.14541,0.34847 0.139587,0.33105 0.1454,0.32524 0.13957,0.30781 0.145387,0.30781 0.13957,0.29038 0.14538,0.28457 0.13956,0.27296 0.145357,0.25552 0.13955,0.24972 0.14535,0.24391 0.13954,0.23229 0.145347,0.22067 0.13952,0.20906 0.14534,0.20324 0.13952,0.19163 0.139507,0.18582 0.14533,0.18001 0.1395,0.16258 0.145307,0.16258 0.13949,0.14515 0.14531,0.15097 0.13949,0.13353 0.145287,0.12773 0.13949,0.12192 0.14529,0.12191 0.13948,0.1103 0.145267,0.0987 0.13948,0.10449 0.14527,0.0871 0.139467,0.0871 0.14527,0.0813 0.13946,0.0812 0.14526,0.0696 0.139457,0.0696 0.14526,0.0638 0.13945,0.058 0.13945,0.058 0.145247,0.0464 0.13945,0.058 0.14525,0.0406 0.13362,0.0348 0.145247,0.0406 0.13944,0.0406 0.14525,0.0348 0.13943,0.029 0.14525,0.0348 0.13943,0.0232 0.14524,0.029 0.13944,0.0232 0.13942,0.0174 0.14524,0.0232 0.13943,0.0174 0.14523,0.0115 0.13944,0.0232 0.14523,0.0115 0.13943,0.0174 0.14523,0.0115 0.13942,0.006 0.14524,0.0115 0.13942,0.0115 0.14523,0.006 0.13943,0.0115 0.14523,0.006 0.13942,0.006 0.14524,0.0115 0.13941,-7e-5 0.14523,0.006 0.13943,0.006 0.14522,-7e-5 0.13943,0.006 0.13942,-7e-5 0.14523,0.006 0.13942,-8e-5 0.14523,0.006 0.13942,-8e-5 0.14522,-7e-5 0.13943,0.0115 0.14523,-8e-5 0.13942,-7e-5 0.14522,-8e-5 0.13942,-7e-5 0.14523,0.006 0.13942,-7e-5 0.14523,-7e-5 0.13942,-8e-5 0.14523,-7e-5 0.13942,-7e-5 0.14522,-8e-5 0.13942,-7e-5 0.14523,-8e-5"
       id="path150"
       style="opacity:0.5;fill:url(#linearGradient5660);fill-opacity:1;fill-rule:evenodd;stroke:#da251d;stroke-width:0.5;stroke-linejoin:bevel;stroke-dasharray:none;stroke-dashoffset:0;image-rendering:optimizeQuality;shape-rendering:geometricPrecision;text-rendering:geometricPrecision" />
    <path
       class="fil1 str1"
       d="m 57.783819,169.66349 v 0 l 0.139419,-7e-5 0.145228,-7e-5 0.139419,-8e-5 0.145228,-7e-5 0.139419,-7e-5 0.145228,-8e-5 0.139419,-7e-5 0.145228,-8e-5 0.139416,-0.006 0.139418,-7e-5 0.145228,-8e-5 0.139419,-7e-5 0.145228,-8e-5 0.139413,-0.0117 0.145228,-8e-5 0.139419,-7e-5 0.145225,-0.006 0.139419,-8e-5 0.145225,-0.006 0.139419,-7e-5 0.145225,-0.006 0.139418,-7e-5 0.145225,-0.006 0.139416,-0.006 0.145228,-8e-5 0.139413,-0.0117 0.145225,-0.006 0.139415,-0.006 0.145222,-0.0117 0.139416,-0.006 0.139413,-0.0117 0.145222,-0.0117 0.139416,-0.006 0.145222,-0.0117 0.13941,-0.0175 0.145222,-0.0117 0.139407,-0.0233 0.145222,-0.0117 0.139409,-0.0175 0.145216,-0.0233 0.13941,-0.0175 0.145216,-0.0233 0.139403,-0.0291 0.145216,-0.0233 0.139401,-0.0349 0.145213,-0.0291 0.1394,-0.0349 0.145207,-0.0407 0.139398,-0.0407 0.133592,-0.0349 0.145207,-0.0407 0.139388,-0.0582 0.145204,-0.0465 0.139389,-0.0582 0.145198,-0.0582 0.139384,-0.064 0.145192,-0.0698 0.139383,-0.0698 0.145185,-0.0814 0.139377,-0.0814 0.145183,-0.0872 0.139373,-0.0872 0.145174,-0.10464 0.139367,-0.0988 0.145171,-0.11045 0.139355,-0.12207 0.139356,-0.12206 0.145161,-0.12788 0.13935,-0.13368 0.145149,-0.15111 0.139343,-0.1453 0.145144,-0.16273 0.139333,-0.16273 0.145134,-0.18016 0.139322,-0.18596 0.145129,-0.19178 0.139313,-0.20339 0.145119,-0.20921 0.139304,-0.22082 0.145107,-0.23244 0.139292,-0.24405 0.145098,-0.24987 0.139286,-0.25567 0.145086,-0.27311 0.13927,-0.28472 0.145077,-0.29053 0.139259,-0.30795 0.139258,-0.30796 0.145058,-0.32539 0.139247,-0.33119 0.145046,-0.34862 0.139238,-0.34862 0.145037,-0.36605 0.13922,-0.38348 0.145028,-0.38347 0.139213,-0.3951 0.14502,-0.4009 0.139198,-0.42414 0.14501,-0.41833 0.139189,-0.44157 0.144998,-0.44157 0.139189,-0.44156 0.144987,-0.46481 0.139176,-0.4648 0.14498,-0.47642 0.139174,-0.47061 0.144974,-0.48804 0.139164,-0.48804 0.139162,-0.49385 0.144968,-0.49966 0.139156,-0.50547 0.144968,-0.49966 0.139156,-0.50546 0.144962,-0.51128 0.139156,-0.50547 0.144961,-0.51127 0.139159,-0.49966 0.144965,-0.50547 0.139162,-0.49385 0.144971,-0.49385 0.139158,-0.49966 0.14498,-0.47642 0.139168,-0.48223 0.144986,-0.4648 0.139174,-0.47061 0.144995,-0.44738 0.139189,-0.44157 0.145004,-0.42995 0.139205,-0.41252 0.139207,-0.40671 0.145022,-0.3951 0.139226,-0.37185 0.14504,-0.36024 0.139241,-0.34281 0.145058,-0.32539 0.139261,-0.30215 0.145074,-0.29634 0.139283,-0.26148 0.145098,-0.24987 0.139298,-0.23244 0.145122,-0.20339 0.139322,-0.18596 0.145143,-0.16273 0.139347,-0.1395 0.145164,-0.12206 0.139371,-0.093 0.145191,-0.0698 0.139395,-0.0465 0.145216,-0.0233 0.133609,-7e-5 0.139431,0.0232 0.145252,0.0464 0.139456,0.0696 0.145276,0.0929 0.139482,0.12192 0.145301,0.13935 0.139504,0.16258 0.145324,0.18582 0.139525,0.20324 0.145349,0.23229 0.139549,0.24972 0.139555,0.26134 0.145382,0.29619 0.139577,0.302 0.145397,0.32523 0.139596,0.34267 0.145416,0.36009 0.139613,0.37171 0.145433,0.39495 0.139631,0.40656 0.145443,0.41237 0.139642,0.42981 0.145458,0.44141 0.139652,0.44723 0.145473,0.47047 0.139661,0.46465 0.145479,0.48208 0.139667,0.47628 0.145488,0.49951 0.139673,0.4937 0.14549,0.4937 0.13968,0.50532 0.13968,0.49951 0.14549,0.51113 0.13968,0.50532 0.1455,0.51113 0.13968,0.50532 0.14549,0.49951 0.13968,0.50532 0.14549,0.49951 0.13967,0.4937 0.14549,0.48789 0.13967,0.48789 0.14547,0.47046 0.13967,0.47628 0.14547,0.46465 0.13966,0.46466 0.14546,0.44142 0.13965,0.44142 0.14545,0.44142 0.13964,0.41818 0.14545,0.42399 0.13963,0.40076 0.13962,0.39494 0.14543,0.38333 0.13962,0.38333 0.14542,0.3659 0.1396,0.34847 0.14541,0.34847 0.13959,0.33105 0.1454,0.32524 0.13957,0.30781 0.14539,0.30781 0.13957,0.29038 0.14538,0.28457 0.13956,0.27296 0.14536,0.25552 0.13955,0.24972 0.145347,0.24391 0.13954,0.23229 0.14535,0.22067 0.13952,0.20906 0.145337,0.20324 0.13952,0.19163 0.13951,0.18582 0.14533,0.18001 0.139497,0.16258 0.14531,0.16258 0.13949,0.14515 0.14531,0.15097 0.139487,0.13353 0.14529,0.12773 0.13949,0.12192 0.145287,0.12191 0.13948,0.1103 0.14527,0.0987 0.13948,0.10449 0.145267,0.0871 0.13947,0.0871 0.14527,0.0813 0.13946,0.0812 0.145257,0.0696 0.13946,0.0696 0.14526,0.0638 0.139447,0.058 0.13945,0.058 0.14525,0.0464 0.13945,0.058 0.145247,0.0406 0.13362,0.0348 0.14525,0.0406 0.13944,0.0406 0.145247,0.0348 0.13943,0.029 0.14525,0.0348 0.13943,0.0232 0.145237,0.029 0.13944,0.0232 0.13942,0.0174 0.145237,0.0232 0.13943,0.0174 0.14523,0.0115 0.13944,0.0232 0.145227,0.0115 0.13943,0.0174 0.14523,0.0115 0.13942,0.006 0.145237,0.0115 0.13942,0.0115 0.14523,0.006 0.13943,0.0115 0.145227,0.006 0.13942,0.006 0.14524,0.0115 0.139407,-7e-5 0.14523,0.006 0.13943,0.006 0.14522,-7e-5 0.139427,0.006 0.13942,-7e-5 0.14523,0.006 0.13942,-8e-5 0.145227,0.006 0.13942,-8e-5 0.14522,-7e-5 0.139427,0.0115 0.14523,-8e-5 0.13942,-7e-5 0.14522,-8e-5 0.139417,-7e-5 0.14523,0.006 0.13942,-7e-5 0.14523,-7e-5 0.139417,-8e-5 0.14523,-7e-5 0.13942,-7e-5 0.14522,-8e-5 0.139417,-7e-5 0.14523,-8e-5"
       id="path150-7"
       style="opacity:0.5;fill:url(#linearGradient1469);fill-opacity:1;fill-rule:evenodd;stroke:#da251d;stroke-width:0.5;stroke-linejoin:bevel;stroke-dasharray:none;stroke-dashoffset:0;image-rendering:optimizeQuality;shape-rendering:geometricPrecision;text-rendering:geometricPrecision" />
    <path
       class="fil1 str1"
       d="m 51.981819,169.43041 v 0 l 0.139419,-7e-5 0.145228,-7e-5 0.139419,-8e-5 0.145228,-7e-5 0.139419,-7e-5 0.145228,-8e-5 0.139419,-7e-5 0.145228,-8e-5 0.139416,-0.006 0.139418,-7e-5 0.145228,-8e-5 0.139419,-7e-5 0.145228,-8e-5 0.139413,-0.0117 0.145228,-8e-5 0.139419,-7e-5 0.145225,-0.006 0.139419,-8e-5 0.145225,-0.006 0.139419,-7e-5 0.145225,-0.006 0.139418,-7e-5 0.145225,-0.006 0.139416,-0.006 0.145228,-8e-5 0.139413,-0.0117 0.145225,-0.006 0.139415,-0.006 0.145222,-0.0117 0.139416,-0.006 0.139413,-0.0117 0.145222,-0.0117 0.139416,-0.006 0.145222,-0.0117 0.13941,-0.0175 0.145222,-0.0117 0.139407,-0.0233 0.145222,-0.0117 0.139409,-0.0175 0.145216,-0.0233 0.13941,-0.0175 0.145216,-0.0233 0.139403,-0.0291 0.145216,-0.0233 0.139401,-0.0349 0.145213,-0.0291 0.1394,-0.0349 0.145207,-0.0407 0.139398,-0.0407 0.133592,-0.0349 0.145207,-0.0407 0.139388,-0.0582 0.145204,-0.0465 0.139389,-0.0582 0.145198,-0.0582 0.139384,-0.064 0.145192,-0.0698 0.139383,-0.0698 0.145185,-0.0814 0.139377,-0.0814 0.145183,-0.0872 0.139373,-0.0872 0.145174,-0.10464 0.139367,-0.0988 0.145171,-0.11045 0.139355,-0.12207 0.139356,-0.12206 0.145161,-0.12788 0.13935,-0.13368 0.145149,-0.15111 0.139343,-0.1453 0.145144,-0.16273 0.139333,-0.16273 0.145134,-0.18016 0.139322,-0.18596 0.145129,-0.19178 0.139313,-0.20339 0.145119,-0.20921 0.139304,-0.22082 0.145107,-0.23244 0.139292,-0.24405 0.145098,-0.24987 0.139286,-0.25567 0.145086,-0.27311 0.13927,-0.28472 0.145077,-0.29053 0.139259,-0.30795 0.139258,-0.30796 0.145058,-0.32539 0.139247,-0.33119 0.145046,-0.34862 0.139238,-0.34862 0.145037,-0.36605 0.13922,-0.38348 0.145028,-0.38347 0.139213,-0.3951 0.14502,-0.4009 0.139198,-0.42414 0.14501,-0.41833 0.139189,-0.44157 0.144998,-0.44157 0.139189,-0.44156 0.144987,-0.46481 0.139176,-0.4648 0.14498,-0.47642 0.139174,-0.47061 0.144974,-0.48804 0.139164,-0.48804 0.139162,-0.49385 0.144968,-0.49966 0.139156,-0.50547 0.144968,-0.49966 0.139156,-0.50546 0.144962,-0.51128 0.139156,-0.50547 0.144961,-0.51127 0.139159,-0.49966 0.144965,-0.50547 0.139162,-0.49385 0.144971,-0.49385 0.139158,-0.49966 0.14498,-0.47642 0.139168,-0.48223 0.144986,-0.4648 0.139174,-0.47061 0.144995,-0.44738 0.139189,-0.44157 0.145004,-0.42995 0.139205,-0.41252 0.139207,-0.40671 0.145022,-0.3951 0.139226,-0.37185 0.14504,-0.36024 0.139241,-0.34281 0.145058,-0.32539 0.139261,-0.30215 0.145074,-0.29634 0.139283,-0.26148 0.145098,-0.24987 0.139298,-0.23244 0.145122,-0.20339 0.139322,-0.18596 0.145143,-0.16273 0.139347,-0.1395 0.145164,-0.12206 0.139371,-0.093 0.145191,-0.0698 0.139395,-0.0465 0.145216,-0.0233 0.133609,-7e-5 0.139431,0.0232 0.145252,0.0464 0.139456,0.0696 0.145276,0.0929 0.139482,0.12192 0.145301,0.13935 0.139504,0.16258 0.145324,0.18582 0.139525,0.20324 0.145349,0.23229 0.139549,0.24972 0.139555,0.26134 0.145382,0.29619 0.139577,0.302 0.145397,0.32523 0.139596,0.34267 0.145416,0.36009 0.139613,0.37171 0.145433,0.39495 0.139631,0.40656 0.145443,0.41237 0.139642,0.42981 0.145458,0.44141 0.139652,0.44723 0.145473,0.47047 0.139661,0.46465 0.145479,0.48208 0.139667,0.47628 0.145488,0.49951 0.139673,0.4937 0.14549,0.4937 0.13968,0.50532 0.13968,0.49951 0.14549,0.51113 0.13968,0.50532 0.1455,0.51113 0.13968,0.50532 0.14549,0.49951 0.13968,0.50532 0.14549,0.49951 0.13967,0.4937 0.14549,0.48789 0.13967,0.48789 0.14547,0.47046 0.13967,0.47628 0.14547,0.46465 0.13966,0.46466 0.14546,0.44142 0.13965,0.44142 0.14545,0.44142 0.13964,0.41818 0.14545,0.42399 0.13963,0.40076 0.13962,0.39494 0.14543,0.38333 0.13962,0.38333 0.14542,0.3659 0.1396,0.34847 0.14541,0.34847 0.13959,0.33105 0.1454,0.32524 0.13957,0.30781 0.14539,0.30781 0.13957,0.29038 0.14538,0.28457 0.13956,0.27296 0.14536,0.25552 0.13955,0.24972 0.14535,0.24391 0.13954,0.23229 0.14535,0.22067 0.13952,0.20906 0.14534,0.20324 0.13952,0.19163 0.13951,0.18582 0.14533,0.18001 0.1395,0.16258 0.14531,0.16258 0.13949,0.14515 0.14531,0.15097 0.13949,0.13353 0.14529,0.12773 0.13949,0.12192 0.14529,0.12191 0.13948,0.1103 0.14527,0.0987 0.13948,0.10449 0.14527,0.0871 0.13947,0.0871 0.14527,0.0813 0.13946,0.0812 0.14526,0.0696 0.13946,0.0696 0.14526,0.0638 0.13945,0.058 0.13945,0.058 0.14525,0.0464 0.13945,0.058 0.14525,0.0406 0.13362,0.0348 0.14525,0.0406 0.13944,0.0406 0.14525,0.0348 0.13943,0.029 0.14525,0.0348 0.13943,0.0232 0.14524,0.029 0.13944,0.0232 0.13942,0.0174 0.14524,0.0232 0.13943,0.0174 0.14523,0.0115 0.13944,0.0232 0.14523,0.0115 0.13943,0.0174 0.14523,0.0115 0.13942,0.006 0.145241,0.0115 0.13942,0.0115 0.14523,0.006 0.139427,0.0115 0.14523,0.006 0.13942,0.006 0.14524,0.0115 0.139407,-7e-5 0.14523,0.006 0.13943,0.006 0.14522,-7e-5 0.139437,0.006 0.13942,-7e-5 0.14523,0.006 0.13942,-8e-5 0.145227,0.006 0.13942,-8e-5 0.14522,-7e-5 0.139427,0.0115 0.14523,-8e-5 0.13942,-7e-5 0.14522,-8e-5 0.139427,-7e-5 0.14523,0.006 0.13942,-7e-5 0.14523,-7e-5 0.139417,-8e-5 0.14523,-7e-5 0.13942,-7e-5 0.145217,-8e-5 0.13942,-7e-5 0.14523,-8e-5"
       id="path150-5"
       style="opacity:0.5;fill:url(#linearGradient1492);fill-opacity:1;fill-rule:evenodd;stroke:#da251d;stroke-width:0.5;stroke-linejoin:bevel;stroke-dasharray:none;stroke-dashoffset:0;image-rendering:optimizeQuality;shape-rendering:geometricPrecision;text-rendering:geometricPrecision" />
    <path
       class="fil1 str1"
       d="m 72.885033,169.66349 v 0 l 0.139419,-7e-5 0.145229,-7e-5 0.139419,-8e-5 0.145228,-7e-5 0.139419,-7e-5 0.145228,-8e-5 0.139419,-7e-5 0.145228,-8e-5 0.139416,-0.006 0.139418,-7e-5 0.145228,-8e-5 0.139419,-7e-5 0.145228,-8e-5 0.139413,-0.0117 0.145228,-8e-5 0.139419,-7e-5 0.145225,-0.006 0.139419,-8e-5 0.145225,-0.006 0.139419,-7e-5 0.145225,-0.006 0.139418,-7e-5 0.145225,-0.006 0.139416,-0.006 0.145228,-8e-5 0.139413,-0.0117 0.145225,-0.006 0.139415,-0.006 0.145222,-0.0117 0.139416,-0.006 0.139413,-0.0117 0.145222,-0.0117 0.139416,-0.006 0.145222,-0.0117 0.13941,-0.0175 0.145222,-0.0117 0.139407,-0.0233 0.145222,-0.0117 0.139409,-0.0175 0.145216,-0.0233 0.13941,-0.0175 0.145216,-0.0233 0.139403,-0.0291 0.145216,-0.0233 0.139401,-0.0349 0.145213,-0.0291 0.1394,-0.0349 0.145207,-0.0407 0.139398,-0.0407 0.133592,-0.0349 0.145207,-0.0407 0.139388,-0.0582 0.145204,-0.0465 0.139389,-0.0582 0.145198,-0.0582 0.139384,-0.064 0.145192,-0.0698 0.139383,-0.0698 0.145185,-0.0814 0.139377,-0.0814 0.145183,-0.0872 0.139373,-0.0872 0.145174,-0.10464 0.139367,-0.0988 0.145171,-0.11045 0.139355,-0.12207 0.139356,-0.12206 0.145161,-0.12788 0.13935,-0.13368 0.145149,-0.15111 0.139343,-0.1453 0.145144,-0.16273 0.139333,-0.16273 0.145134,-0.18016 0.139322,-0.18596 0.145129,-0.19178 0.139313,-0.20339 0.145119,-0.20921 0.139304,-0.22082 0.145107,-0.23244 0.139292,-0.24405 0.145098,-0.24987 0.139286,-0.25567 0.145086,-0.27311 0.13927,-0.28472 0.145077,-0.29053 0.139259,-0.30795 0.139258,-0.30796 0.145058,-0.32539 0.139247,-0.33119 0.145046,-0.34862 0.139238,-0.34862 0.145037,-0.36605 0.13922,-0.38348 0.145028,-0.38347 0.139213,-0.3951 0.14502,-0.4009 0.139198,-0.42414 0.14501,-0.41833 0.139189,-0.44157 0.144998,-0.44157 0.139193,-0.44156 0.14498,-0.46481 0.13918,-0.4648 0.14498,-0.47642 0.139167,-0.47061 0.14498,-0.48804 0.13916,-0.48804 0.139157,-0.49385 0.14497,-0.49966 0.13916,-0.50547 0.14497,-0.49966 0.139147,-0.50546 0.14496,-0.51128 0.13916,-0.50547 0.14496,-0.51127 0.139157,-0.49966 0.14497,-0.50547 0.13916,-0.49385 0.14497,-0.49385 0.139157,-0.49966 0.14498,-0.47642 0.13916,-0.48223 0.144987,-0.4648 0.13917,-0.47061 0.145,-0.44738 0.13919,-0.44157 0.144997,-0.42995 0.13921,-0.41252 0.1392,-0.40671 0.14503,-0.3951 0.139217,-0.37185 0.14504,-0.36024 0.13924,-0.34281 0.14506,-0.32539 0.139257,-0.30215 0.14508,-0.29634 0.13928,-0.26148 0.145097,-0.24987 0.1393,-0.23244 0.14512,-0.20339 0.13932,-0.18596 0.145137,-0.16273 0.13935,-0.1395 0.14516,-0.12206 0.13937,-0.093 0.145197,-0.0698 0.13939,-0.0465 0.14522,-0.0233 0.133607,-7e-5 0.13943,0.0232 0.14525,0.0464 0.13945,0.0696 0.145277,0.0929 0.13948,0.12192 0.1453,0.13935 0.13951,0.16258 0.145317,0.18582 0.13953,0.20324 0.14535,0.23229 0.13954,0.24972 0.139557,0.26134 0.14538,0.29619 0.13958,0.302 0.145397,0.32523 0.13959,0.34267 0.14542,0.36009 0.13961,0.37171 0.145427,0.39495 0.13963,0.40656 0.14545,0.41237 0.13964,0.42981 0.145457,0.44141 0.13965,0.44723 0.14547,0.47047 0.13966,0.46465 0.145477,0.48208 0.13967,0.47628 0.14549,0.49951 0.139667,0.4937 0.14549,0.4937 0.13968,0.50532 0.13968,0.49951 0.145487,0.51113 0.13968,0.50532 0.1455,0.51113 0.13968,0.50532 0.145487,0.49951 0.13968,0.50532 0.14549,0.49951 0.139667,0.4937 0.14549,0.48789 0.13967,0.48789 0.14547,0.47046 0.13967,0.47628 0.14547,0.46465 0.13966,0.46466 0.14546,0.44142 0.13965,0.44142 0.14545,0.44142 0.13964,0.41818 0.14545,0.42399 0.13963,0.40076 0.13962,0.39494 0.14543,0.38333 0.13962,0.38333 0.14542,0.3659 0.1396,0.34847 0.14541,0.34847 0.13959,0.33105 0.1454,0.32524 0.13957,0.30781 0.14539,0.30781 0.13957,0.29038 0.14538,0.28457 0.13956,0.27296 0.14536,0.25552 0.13955,0.24972 0.14535,0.24391 0.13954,0.23229 0.14535,0.22067 0.13952,0.20906 0.14534,0.20324 0.13952,0.19163 0.13951,0.18582 0.14533,0.18001 0.1395,0.16258 0.14531,0.16258 0.13949,0.14515 0.14531,0.15097 0.13949,0.13353 0.14529,0.12773 0.13949,0.12192 0.14529,0.12191 0.13948,0.1103 0.14527,0.0987 0.13948,0.10449 0.14527,0.0871 0.13947,0.0871 0.14527,0.0813 0.13946,0.0812 0.14526,0.0696 0.13946,0.0696 0.14526,0.0638 0.13945,0.058 0.13945,0.058 0.14525,0.0464 0.13945,0.058 0.14525,0.0406 0.13362,0.0348 0.14525,0.0406 0.13944,0.0406 0.14525,0.0348 0.13943,0.029 0.14525,0.0348 0.13943,0.0232 0.14524,0.029 0.13944,0.0232 0.13942,0.0174 0.14524,0.0232 0.13943,0.0174 0.14523,0.0115 0.13944,0.0232 0.14523,0.0115 0.13943,0.0174 0.14523,0.0115 0.13942,0.006 0.14524,0.0115 0.13942,0.0115 0.14523,0.006 0.13943,0.0115 0.14523,0.006 0.13942,0.006 0.14524,0.0115 0.13941,-7e-5 0.14523,0.006 0.13943,0.006 0.14522,-7e-5 0.13943,0.006 0.13942,-7e-5 0.14523,0.006 0.13942,-8e-5 0.14523,0.006 0.13942,-8e-5 0.14522,-7e-5 0.13943,0.0115 0.14523,-8e-5 0.13942,-7e-5 0.14522,-8e-5 0.13942,-7e-5 0.14523,0.006 0.13942,-7e-5 0.14523,-7e-5 0.13942,-8e-5 0.14523,-7e-5 0.13942,-7e-5 0.14522,-8e-5 0.13942,-7e-5 0.14523,-8e-5"
       id="path150-9"
       style="opacity:0.5;fill:url(#linearGradient1515);fill-opacity:1;fill-rule:evenodd;stroke:#da251d;stroke-width:0.5;stroke-linejoin:bevel;stroke-dasharray:none;stroke-dashoffset:0;image-rendering:optimizeQuality;shape-rendering:geometricPrecision;text-rendering:geometricPrecision" />
    <path
       class="fil1 str1"
       d="m 77.028227,169.66349 v 0 l 0.139419,-7e-5 0.145228,-7e-5 0.139419,-8e-5 0.145228,-7e-5 0.139419,-7e-5 0.145228,-8e-5 0.139419,-7e-5 0.145228,-8e-5 0.139416,-0.006 0.139418,-7e-5 0.145228,-8e-5 0.139419,-7e-5 0.145228,-8e-5 0.139413,-0.0117 0.145228,-8e-5 0.139419,-7e-5 0.145225,-0.006 0.139419,-8e-5 0.145225,-0.006 0.139419,-7e-5 0.145225,-0.006 0.139418,-7e-5 0.145225,-0.006 0.139416,-0.006 0.145228,-8e-5 0.139413,-0.0117 0.145225,-0.006 0.139415,-0.006 0.145222,-0.0117 0.139416,-0.006 0.139413,-0.0117 0.145222,-0.0117 0.139416,-0.006 0.145222,-0.0117 0.13941,-0.0175 0.145224,-0.0117 0.13941,-0.0233 0.14522,-0.0117 0.139407,-0.0175 0.14521,-0.0233 0.13941,-0.0175 0.14522,-0.0233 0.139397,-0.0291 0.14522,-0.0233 0.1394,-0.0349 0.14521,-0.0291 0.139397,-0.0349 0.14521,-0.0407 0.1394,-0.0407 0.133587,-0.0349 0.14521,-0.0407 0.13938,-0.0582 0.14521,-0.0465 0.139387,-0.0582 0.14519,-0.0582 0.13939,-0.064 0.14519,-0.0698 0.139377,-0.0698 0.14519,-0.0814 0.13938,-0.0814 0.14518,-0.0872 0.139367,-0.0872 0.14518,-0.10464 0.13936,-0.0988 0.145167,-0.11045 0.13936,-0.12207 0.13935,-0.12206 0.14517,-0.12788 0.139347,-0.13368 0.14514,-0.15111 0.13935,-0.1453 0.14514,-0.16273 0.139327,-0.16273 0.14514,-0.18016 0.13932,-0.18596 0.14513,-0.19178 0.139307,-0.20339 0.14512,-0.20921 0.13931,-0.22082 0.145097,-0.23244 0.13929,-0.24405 0.1451,-0.24987 0.13929,-0.25567 0.145077,-0.27311 0.13927,-0.28472 0.14508,-0.29053 0.13926,-0.30795 0.139257,-0.30796 0.14506,-0.32539 0.13924,-0.33119 0.145047,-0.34862 0.13924,-0.34862 0.14503,-0.36605 0.13922,-0.38348 0.145027,-0.38347 0.13922,-0.3951 0.14502,-0.4009 0.13919,-0.42414 0.145007,-0.41833 0.13919,-0.44157 0.145,-0.44157 0.13919,-0.44156 0.144987,-0.46481 0.13917,-0.4648 0.14498,-0.47642 0.139177,-0.47061 0.14497,-0.48804 0.13916,-0.48804 0.13917,-0.49385 0.144957,-0.49966 0.13916,-0.50547 0.14497,-0.49966 0.13915,-0.50546 0.144967,-0.51128 0.13915,-0.50547 0.14496,-0.51127 0.13916,-0.49966 0.144967,-0.50547 0.13916,-0.49385 0.14497,-0.49385 0.139157,-0.49966 0.14498,-0.47642 0.13917,-0.48223 0.14498,-0.4648 0.139177,-0.47061 0.14499,-0.44738 0.13919,-0.44157 0.145,-0.42995 0.139207,-0.41252 0.13921,-0.40671 0.14502,-0.3951 0.139217,-0.37185 0.14504,-0.36024 0.13925,-0.34281 0.14505,-0.32539 0.139257,-0.30215 0.14508,-0.29634 0.13928,-0.26148 0.1451,-0.24987 0.139297,-0.23244 0.14512,-0.20339 0.13932,-0.18596 0.14514,-0.16273 0.139347,-0.1395 0.14517,-0.12206 0.13937,-0.093 0.145187,-0.0698 0.13939,-0.0465 0.14522,-0.0233 0.13361,-7e-5 0.139427,0.0232 0.14525,0.0464 0.13946,0.0696 0.14527,0.0929 0.139477,0.12192 0.14531,0.13935 0.1395,0.16258 0.14532,0.18582 0.139527,0.20324 0.14535,0.23229 0.13955,0.24972 0.139547,0.26134 0.14538,0.29619 0.13958,0.302 0.1454,0.32523 0.13959,0.34267 0.14542,0.36009 0.13961,0.37171 0.14544,0.39495 0.13963,0.40656 0.14544,0.41237 0.13964,0.42981 0.14546,0.44141 0.13965,0.44723 0.14547,0.47047 0.13967,0.46465 0.14547,0.48208 0.13967,0.47628 0.14549,0.49951 0.13967,0.4937 0.14549,0.4937 0.13968,0.50532 0.13968,0.49951 0.14549,0.51113 0.13968,0.50532 0.1455,0.51113 0.13968,0.50532 0.14549,0.49951 0.13968,0.50532 0.14549,0.49951 0.13967,0.4937 0.14549,0.48789 0.13967,0.48789 0.14547,0.47046 0.13967,0.47628 0.14547,0.46465 0.13966,0.46466 0.14546,0.44142 0.13965,0.44142 0.14545,0.44142 0.13964,0.41818 0.14545,0.42399 0.13963,0.40076 0.13962,0.39494 0.14543,0.38333 0.13962,0.38333 0.14542,0.3659 0.1396,0.34847 0.14541,0.34847 0.13959,0.33105 0.1454,0.32524 0.13957,0.30781 0.14539,0.30781 0.13957,0.29038 0.14538,0.28457 0.13956,0.27296 0.14536,0.25552 0.13955,0.24972 0.14535,0.24391 0.13954,0.23229 0.14535,0.22067 0.13952,0.20906 0.14534,0.20324 0.13952,0.19163 0.13951,0.18582 0.14533,0.18001 0.1395,0.16258 0.14531,0.16258 0.13949,0.14515 0.14531,0.15097 0.13949,0.13353 0.14529,0.12773 0.13949,0.12192 0.14529,0.12191 0.13948,0.1103 0.14527,0.0987 0.13948,0.10449 0.14527,0.0871 0.13947,0.0871 0.14527,0.0813 0.13946,0.0812 0.14526,0.0696 0.13946,0.0696 0.14526,0.0638 0.13945,0.058 0.13945,0.058 0.14525,0.0464 0.13945,0.058 0.14525,0.0406 0.13362,0.0348 0.14525,0.0406 0.13944,0.0406 0.14525,0.0348 0.13943,0.029 0.14525,0.0348 0.13943,0.0232 0.14524,0.029 0.13944,0.0232 0.13942,0.0174 0.14524,0.0232 0.13943,0.0174 0.14523,0.0115 0.13944,0.0232 0.14523,0.0115 0.13943,0.0174 0.14523,0.0115 0.13942,0.006 0.14524,0.0115 0.13942,0.0115 0.14523,0.006 0.13943,0.0115 0.14523,0.006 0.13942,0.006 0.14524,0.0115 0.13941,-7e-5 0.14523,0.006 0.13943,0.006 0.14522,-7e-5 0.13943,0.006 0.13942,-7e-5 0.14523,0.006 0.13942,-8e-5 0.14523,0.006 0.13942,-8e-5 0.14522,-7e-5 0.13943,0.0115 0.14523,-8e-5 0.13942,-7e-5 0.14522,-8e-5 0.13942,-7e-5 0.14523,0.006 0.13942,-7e-5 0.14523,-7e-5 0.13942,-8e-5 0.14523,-7e-5 0.13942,-7e-5 0.14522,-8e-5 0.13942,-7e-5 0.14523,-8e-5"
       id="path150-70"
       style="opacity:0.5;fill:url(#linearGradient1538);fill-opacity:1;fill-rule:evenodd;stroke:#da251d;stroke-width:0.5;stroke-linejoin:bevel;stroke-dasharray:none;stroke-dashoffset:0;image-rendering:optimizeQuality;shape-rendering:geometricPrecision;text-rendering:geometricPrecision" />
    <g
       id="g2342"
       transform="translate(27.098175,27.090745)">
      <path
         style="fill:none;stroke:#000000;stroke-width:0.5;stroke-linecap:butt;stroke-linejoin:miter;stroke-dasharray:none;stroke-opacity:1;marker-end:url(#TriangleStart-60)"
         d="M 24.52756,142.76406 V 104.82105"
         id="path3282-9"
         sodipodi:nodetypes="cc" />
      <path
         style="fill:none;stroke:#000000;stroke-width:0.5;stroke-linecap:butt;stroke-linejoin:miter;stroke-dasharray:none;stroke-opacity:1;marker-end:url(#TriangleStart-6-2)"
         d="M 24.39118,142.57795 H 91.848791"
         id="path3282-5-2"
         sodipodi:nodetypes="cc" />
      <text
         xml:space="preserve"
         style="font-size:3.88056px;line-height:1.25;font-family:sans-serif, Arial;-inkscape-font-specification:'sans-serif, Arial';stroke-width:0.264583"
         x="-132.20923"
         y="22.561846"
         id="text3517-0"
         transform="rotate(-90)"><tspan
           sodipodi:role="line"
           id="tspan3515-2"
           style="font-style:normal;font-variant:normal;font-weight:normal;font-stretch:normal;font-family:Arial;-inkscape-font-specification:Arial;stroke-width:0.264583"
           x="-132.20923"
           y="22.561846">Activations</tspan></text>
      <text
         xml:space="preserve"
         style="font-size:3.88056px;line-height:1.25;font-family:sans-serif, Arial;-inkscape-font-specification:'sans-serif, Arial';stroke-width:0.264583"
         x="53.062805"
         y="147.16518"
         id="text3517-3-3"><tspan
           sodipodi:role="line"
           id="tspan3515-5-7"
           style="font-style:normal;font-variant:normal;font-weight:normal;font-stretch:normal;font-family:Arial;-inkscape-font-specification:Arial;stroke-width:0.264583"
           x="53.062805"
           y="147.16518">Length</tspan></text>
    </g>
    <circle
       style="fill:#000000;fill-opacity:1;stroke:none;stroke-width:0.499999;stroke-dasharray:none;stop-color:#000000"
       id="path8238-5-1"
       cx="87.787521"
       cy="142.53893"
       r="0.57715791" />
    <circle
       style="fill:#000000;fill-opacity:1;stroke:none;stroke-width:0.499999;stroke-dasharray:none;stop-color:#000000"
       id="path8238-5-8"
       cx="87.787521"
       cy="156.14914"
       r="0.57715791" />
    <circle
       style="fill:#000000;fill-opacity:1;stroke:none;stroke-width:0.499999;stroke-dasharray:none;stop-color:#000000"
       id="path8238-5-7"
       cx="87.787521"
       cy="163.19067"
       r="0.57715791" />
    <circle
       style="fill:#000000;fill-opacity:1;stroke:none;stroke-width:0.499999;stroke-dasharray:none;stop-color:#000000"
       id="path8238-5-9"
       cx="87.787521"
       cy="166.34084"
       r="0.57715791" />
    <circle
       style="fill:#000000;fill-opacity:1;stroke:none;stroke-width:0.499999;stroke-dasharray:none;stop-color:#000000"
       id="path8238-5-2"
       cx="87.787521"
       cy="168.90421"
       r="0.57715791" />
    <path
       style="fill:none;stroke:#000000;stroke-width:0.264583px;stroke-linecap:butt;stroke-linejoin:miter;stroke-dasharray:1.05833, 0.264583;stroke-dashoffset:0;stroke-opacity:1"
       d="M 87.787525,169.95119 V 139.54831"
       id="path9645-6"
       sodipodi:nodetypes="cc" />
    <path
       style="fill:none;stroke:#000000;stroke-width:0.264583px;stroke-linecap:butt;stroke-linejoin:miter;stroke-dasharray:1.05833, 0.264583;stroke-dashoffset:0;stroke-opacity:1"
       d="M 50.402052,142.54259 H 87.462899"
       id="path9645-6-0"
       sodipodi:nodetypes="cc" />
    <path
       style="fill:none;stroke:#000000;stroke-width:0.264583px;stroke-linecap:butt;stroke-linejoin:miter;stroke-dasharray:1.05833, 0.264583;stroke-dashoffset:0;stroke-opacity:1"
       d="M 50.402052,156.14914 H 87.462899"
       id="path9645-6-0-9"
       sodipodi:nodetypes="cc" />
    <path
       style="fill:none;stroke:#000000;stroke-width:0.264583px;stroke-linecap:butt;stroke-linejoin:miter;stroke-dasharray:1.05833, 0.264583;stroke-dashoffset:0;stroke-opacity:1"
       d="M 50.402052,163.19067 H 87.462899"
       id="path9645-6-0-2"
       sodipodi:nodetypes="cc" />
    <path
       style="fill:none;stroke:#000000;stroke-width:0.264583px;stroke-linecap:butt;stroke-linejoin:miter;stroke-dasharray:1.05833, 0.264583;stroke-dashoffset:0;stroke-opacity:1"
       d="M 50.402052,166.34084 H 87.462898"
       id="path9645-6-0-28"
       sodipodi:nodetypes="cc" />
    <path
       style="fill:none;stroke:#000000;stroke-width:0.264583px;stroke-linecap:butt;stroke-linejoin:miter;stroke-dasharray:1.05833, 0.264583;stroke-dashoffset:0;stroke-opacity:1"
       d="M 50.40205,168.90421 H 87.4629"
       id="path9645-6-0-97"
       sodipodi:nodetypes="cc" />
    <text
       xml:space="preserve"
       style="font-size:3.88056px;line-height:1.25;font-family:sans-serif, Arial;-inkscape-font-specification:'sans-serif, Arial';stroke-width:0.264583"
       x="77.832222"
       y="132.00008"
       id="text10076"><tspan
         sodipodi:role="line"
         id="tspan10074"
         style="stroke-width:0.264583"
         x="77.832222"
         y="132.00008">Touch point</tspan></text>
    <g
       id="g3831"
       transform="translate(-1.9573846)">
      <path
         class="fil0"
         d="m 89.438811,137.18312 -0.03246,-4.16608 0.644636,-2e-5 0.03248,4.16608 z"
         id="path153"
         style="fill:#ff0000;fill-opacity:1;fill-rule:evenodd;stroke:#ff0000;stroke-width:0.768223;stroke-dasharray:none;stroke-opacity:1;image-rendering:optimizeQuality;shape-rendering:geometricPrecision;text-rendering:geometricPrecision" />
      <path
         class="fil0"
         d="m 89.084094,137.83798 0.661749,1.20335 0.660495,-1.20404 -1.322244,6.9e-4 0.661749,1.20335 z"
         id="path155"
         style="fill:#ff0000;fill-opacity:1;fill-rule:evenodd;stroke:#ff0000;stroke-width:1.17732;stroke-dasharray:none;stroke-opacity:1;image-rendering:optimizeQuality;shape-rendering:geometricPrecision;text-rendering:geometricPrecision" />
    </g>
  </g>
</svg>
